<svg width="90" height="90" viewBox="0 0 90 90" fill="none" xmlns="http://www.w3.org/2000/svg">
<path d="M45 90C69.8528 90 90 69.8528 90 45C90 20.1472 69.8528 0 45 0C20.1472 0 0 20.1472 0 45C0 69.8528 20.1472 90 45 90Z" fill="#1B1464"/>
<path d="M45 90C69.8528 90 90 69.8528 90 45C90 20.1472 69.8528 0 45 0C20.1472 0 0 20.1472 0 45C0 69.8528 20.1472 90 45 90Z" fill="black" fill-opacity="0.2"/>
<path d="M20.1029 22.3121L40.3912 45.5954C40.9612 46.2502 41.6624 46.7747 42.4482 47.1339C43.2339 47.4932 44.0863 47.679 44.9485 47.679C45.8108 47.679 46.6631 47.4932 47.4489 47.1339C48.2347 46.7747 48.9359 46.2502 49.5059 45.5954L69.4298 22.7129C69.5917 22.5298 69.7848 22.3778 70 22.264C69.1289 21.8769 68.1877 21.6776 67.2363 21.679H22.6528C21.743 21.6793 20.842 21.859 20 22.2079L20.1029 22.3121Z" fill="white"/>
<path d="M72.9454 24.679C72.8587 24.9221 72.728 25.1466 72.5598 25.3411L52.7596 48.124C51.7892 49.2393 50.5957 50.1326 49.2585 50.7445C47.9214 51.3563 46.471 51.6728 45.0039 51.6728C43.5368 51.6728 42.0865 51.3563 40.7493 50.7445C39.4121 50.1326 38.2187 49.2393 37.2483 48.124L17.0939 24.9422C17.0546 24.8936 17.0179 24.843 16.9837 24.7906C16.3397 25.8684 15.9995 27.1044 16 28.3644V59.7468C16 60.6578 16.1772 61.5599 16.5213 62.4014C16.8655 63.243 17.3699 64.0076 18.0058 64.6514C18.6417 65.2952 19.3965 65.8057 20.2272 66.1536C21.0578 66.5015 21.9479 66.68 22.8467 66.679H67.1533C68.0521 66.68 68.9422 66.5015 69.7728 66.1536C70.6035 65.8057 71.3583 65.2952 71.9942 64.6514C72.63 64.0076 73.1345 63.243 73.4787 62.4014C73.8228 61.5599 74 60.6578 74 59.7468V28.3644C74.0024 27.0591 73.6365 25.7804 72.9454 24.679Z" fill="white"/>
</svg>
