<svg width="90" height="90" viewBox="0 0 90 90" fill="none" xmlns="http://www.w3.org/2000/svg">
<g clip-path="url(#clip0_136_5)">
<path d="M45.5056 91.0112C70.6377 91.0112 91.0112 70.6377 91.0112 45.5056C91.0112 20.3736 70.6377 0 45.5056 0C20.3736 0 0 20.3736 0 45.5056C0 70.6377 20.3736 91.0112 45.5056 91.0112Z" fill="#1B1464"/>
<path d="M45.5056 91.0112C70.6377 91.0112 91.0112 70.6377 91.0112 45.5056C91.0112 20.3736 70.6377 0 45.5056 0C20.3736 0 0 20.3736 0 45.5056C0 70.6377 20.3736 91.0112 45.5056 91.0112Z" fill="black" fill-opacity="0.2"/>
<path fill-rule="evenodd" clip-rule="evenodd" d="M66.6435 23.9195C61.748 19.0272 55.2422 16.0796 48.3361 15.6248C41.43 15.17 34.5938 17.2391 29.099 21.4472C23.6043 25.6553 19.8249 31.716 18.4641 38.5019C17.1032 45.2878 18.2533 52.3371 21.7006 58.3385L17.6216 73.1291L32.7548 69.1643C36.9411 71.44 41.6303 72.6319 46.3951 72.6314C52.0409 72.6367 57.5615 70.9681 62.2592 67.8366C66.9569 64.7051 70.6209 60.2512 72.7879 55.0379C74.9549 49.8246 75.5279 44.0859 74.4342 38.547C73.3405 33.0082 70.6294 27.9179 66.6435 23.9195ZM46.4523 67.8182C42.2037 67.8148 38.0339 66.6709 34.3783 64.506L33.5054 63.992L24.5233 66.3416L26.9218 57.5961L26.3507 56.6987C23.5545 52.2417 22.3186 46.9818 22.8375 41.7459C23.3564 36.51 25.6006 31.595 29.2173 27.7735C32.834 23.952 37.6181 21.4408 42.8175 20.6347C48.0169 19.8285 53.3369 20.7731 57.941 23.3199C62.5451 25.8667 66.1723 29.8714 68.2523 34.7043C70.3324 39.5373 70.7474 44.9244 69.4321 50.0189C68.1167 55.1134 65.1457 59.6264 60.986 62.8483C56.8263 66.0703 51.7138 67.8185 46.4523 67.8182ZM59.4644 50.0254C58.7547 49.6664 55.2467 47.9451 54.5695 47.7085C53.8924 47.4719 53.4437 47.3495 52.9379 48.0593C52.4321 48.769 51.0942 50.3843 50.6781 50.8575C50.2621 51.3307 49.8623 51.3959 49.1363 51.037C47.0429 50.1947 45.1109 48.9968 43.4256 47.4964C41.8683 46.0552 40.5323 44.3921 39.4608 42.5607C39.0447 41.8428 39.4118 41.4594 39.7708 41.1004C40.1297 40.7415 40.4805 40.2846 40.8395 39.8523C41.1343 39.4929 41.3735 39.0914 41.5492 38.6612C41.6463 38.4653 41.692 38.248 41.682 38.0297C41.6721 37.8114 41.6067 37.5991 41.4921 37.413C41.3127 37.054 39.8605 33.5461 39.2976 32.1184C38.7347 30.6907 38.131 30.9192 37.666 30.8947C37.201 30.8702 36.7768 30.8947 36.2954 30.8947C35.9345 30.9043 35.5794 30.9882 35.2524 31.1412C34.9253 31.2942 34.6333 31.513 34.3946 31.7839C33.5881 32.549 32.9496 33.4737 32.5198 34.4989C32.09 35.5242 31.8783 36.6278 31.8982 37.7393C31.8982 41.2473 34.4517 44.6329 34.8107 45.0816C35.1696 45.5303 39.8442 52.7583 46.9988 55.8503C48.3318 56.4205 49.6933 56.9215 51.0779 57.3514C52.5343 57.7919 54.0734 57.8869 55.573 57.6287C56.9436 57.4248 59.7907 55.9074 60.3863 54.2431C60.8671 53.1925 61.0316 52.0245 60.8594 50.882C60.6555 50.5883 60.1823 50.4088 59.4644 50.0254Z" fill="white"/>
</g>
<defs>
<clipPath id="clip0_136_5">
<rect width="90" height="90" fill="white"/>
</clipPath>
</defs>
</svg>
