<svg width="90" height="90" viewBox="0 0 90 90" fill="none" xmlns="http://www.w3.org/2000/svg">
<mask id="mask0_136_32" style="mask-type:luminance" maskUnits="userSpaceOnUse" x="0" y="0" width="90" height="90">
<path d="M45 90C69.8528 90 90 69.8528 90 45C90 20.1472 69.8528 0 45 0C20.1472 0 0 20.1472 0 45C0 69.8528 20.1472 90 45 90Z" fill="white"/>
</mask>
<g mask="url(#mask0_136_32)">
<mask id="mask1_136_32" style="mask-type:luminance" maskUnits="userSpaceOnUse" x="-4" y="-4" width="98" height="98">
<path d="M93.3287 -3.33582H-3.32812V93.321H93.3287V-3.33582Z" fill="white"/>
</mask>
<g mask="url(#mask1_136_32)">
<rect x="-3.64014" y="-3.58838" width="97.1174" height="96.7979" fill="#1B1464"/>
<rect x="-3.64014" y="-3.58838" width="97.1174" height="96.7979" fill="black" fill-opacity="0.2"/>
</g>
<path d="M44.9998 21.7681C52.5629 21.7681 53.4619 21.7681 56.4485 21.939C58.245 21.9565 60.0247 22.2859 61.7085 22.9123C62.9321 23.3816 64.0433 24.1031 64.97 25.0297C65.8966 25.9564 66.6181 27.0676 67.0874 28.2912C67.7 29.9778 68.0191 31.7568 68.031 33.5512C68.1647 36.523 68.1944 37.4294 68.1944 44.9999C68.1944 52.5705 68.1944 53.4918 68.031 56.4635C68.0078 58.2594 67.6787 60.0383 67.0577 61.7236C66.5867 62.9453 65.8646 64.0546 64.938 64.9799C64.0115 65.9051 62.9012 66.6257 61.6788 67.095C59.9958 67.725 58.2158 68.0569 56.4188 68.0757C53.447 68.2094 52.5332 68.2392 44.97 68.2392C37.4069 68.2392 36.5079 68.2392 33.5213 68.0757C31.7243 68.0569 29.9443 67.725 28.2613 67.095C27.0389 66.6257 25.9286 65.9051 25.0021 64.9799C24.0755 64.0546 23.3534 62.9453 22.8824 61.7236C22.2817 60.0347 21.9726 58.256 21.9686 56.4635C21.8348 53.4918 21.8051 52.5779 21.8051 45.0148C21.8051 37.4516 21.8051 36.5527 21.9686 33.5661C21.99 31.77 22.3191 29.9909 22.9418 28.306C23.4112 27.0824 24.1326 25.9713 25.0593 25.0446C25.9859 24.1179 27.0971 23.3965 28.3207 22.9271C30.0045 22.3007 31.7843 21.9714 33.5807 21.9539C36.5525 21.8127 37.4663 21.783 45.0295 21.783M45.0295 16.679C37.3326 16.679 36.3668 16.7161 33.3504 16.8499C30.9856 16.8897 28.6445 17.3293 26.4262 18.15C24.547 18.8809 22.841 19.9958 21.4172 21.4234C19.9934 22.8511 18.8831 24.5601 18.1573 26.4412C17.332 28.6407 16.8873 30.9647 16.8423 33.3135C16.7011 36.3372 16.6714 37.3031 16.6714 44.9999C16.6714 52.6968 16.6714 53.6552 16.8423 56.679C16.8886 59.03 17.3332 61.3562 18.1573 63.5586C18.8848 65.4379 19.9957 67.1451 21.4194 68.5713C22.8431 69.9975 24.5482 71.1116 26.4262 71.8424C28.6286 72.6665 30.9548 73.1111 33.3059 73.1574C36.3222 73.2986 37.288 73.3283 44.9849 73.3283C52.6818 73.3283 53.6476 73.3283 56.664 73.1574C59.025 73.1144 61.3615 72.6698 63.5733 71.8424C65.454 71.1133 67.1621 70 68.5884 68.5737C70.0147 67.1474 71.128 65.4394 71.8571 63.5586C72.6811 61.3562 73.1258 59.03 73.1721 56.679C73.3133 53.6552 73.343 52.6894 73.343 44.9999C73.343 37.3105 73.343 36.3372 73.1721 33.3135C73.1271 30.9647 72.6824 28.6407 71.8571 26.4412C71.1297 24.5587 70.0171 22.8488 68.5906 21.421C67.1641 19.9933 65.4552 18.8792 63.5733 18.15C61.37 17.3291 59.0444 16.8846 56.6937 16.835C53.6773 16.7013 52.7115 16.6641 45.0146 16.6641L45.0295 16.679Z" fill="white"/>
<path d="M44.9997 30.4606C42.1201 30.4592 39.3049 31.3119 36.9102 32.9109C34.5155 34.5099 32.6489 36.7833 31.5466 39.4435C30.4443 42.1037 30.1559 45.031 30.7178 47.8552C31.2798 50.6793 32.6668 53.2733 34.7035 55.3089C36.7401 57.3445 39.3348 58.7302 42.1592 59.2907C44.9836 59.8512 47.9109 59.5613 50.5705 58.4577C53.2301 57.354 55.5026 55.4863 57.1003 53.0907C58.6981 50.6952 59.5494 47.8795 59.5465 45C59.5445 41.1432 58.011 37.4451 55.2832 34.7187C52.5553 31.9922 48.8564 30.4606 44.9997 30.4606ZM44.9997 54.4577C43.1306 54.4591 41.303 53.9063 39.7481 52.8691C38.1932 51.832 36.9808 50.357 36.2642 48.6307C35.5476 46.9045 35.3589 45.0045 35.7221 43.1711C36.0853 41.3376 36.9841 39.6531 38.3047 38.3304C39.6253 37.0077 41.3084 36.1063 43.1413 35.7403C44.9742 35.3742 46.8744 35.5598 48.6018 36.2737C50.3292 36.9876 51.806 38.1977 52.8457 39.751C53.8853 41.3043 54.441 43.1309 54.4424 45C54.4424 46.2401 54.1982 47.468 53.7237 48.6136C53.2491 49.7593 52.5536 50.8002 51.6767 51.6771C50.7999 52.5539 49.7589 53.2495 48.6133 53.724C47.4676 54.1986 46.2397 54.4428 44.9997 54.4428V54.4577Z" fill="white"/>
<path d="M60.1195 33.2764C61.9987 33.2764 63.5221 31.7529 63.5221 29.8737C63.5221 27.9944 61.9987 26.471 60.1195 26.471C58.2402 26.471 56.7168 27.9944 56.7168 29.8737C56.7168 31.7529 58.2402 33.2764 60.1195 33.2764Z" fill="white"/>
</g>
</svg>
